<?xml version="1.0" ?><!-- Uploaded to: SVG Repo, www.svgrepo.com, Generator: SVG Repo Mixer Tools -->
<svg fill="#000000" width="800px" height="800px" viewBox="0 0 100 100" data-name="Layer 1" id="Layer_1" xmlns="http://www.w3.org/2000/svg"><path d="M79.37,57.9a1.28,1.28,0,1,0-.29,0A1,1,0,0,0,79.37,57.9Z"/><path d="M40.34,72.93,34.85,86.81a1.25,1.25,0,1,0,2.32.92l5.74-14.49.59-.53a19.72,19.72,0,0,0,18-5.28c6.09.07,10.38,1.5,12.41,4.14a7,7,0,0,1,1.22,5.7A1.26,1.26,0,0,0,76,78.81a1.37,1.37,0,0,0,.34,0,1.25,1.25,0,0,0,1.2-.92,9.54,9.54,0,0,0-1.62-7.85c-2.61-3.42-7.63-5.16-14.94-5.16a1.27,1.27,0,0,0-.9.38A17.27,17.27,0,0,1,46,70.57l.36-.32,2.51-2.54c9.69-.4,18.2-9.7,20.26-22.13A5.55,5.55,0,0,0,73.48,40a5.94,5.94,0,0,0-1.41-3.87c.72-.26,1.44-.53,2.18-.85a1.25,1.25,0,0,0-1-2.3,29.77,29.77,0,0,1-4,1.44l-.16-.05C67,22.46,58.52,14.26,48.17,14.26s-18.82,8.2-20.9,20.07a5.79,5.79,0,0,0,0,11.25,30.22,30.22,0,0,0,7.86,16.23l.1.07L36,64l-.77,1.48a1.23,1.23,0,0,0-1-.6c-7.58,0-12.69,1.71-15.2,5.09A8.34,8.34,0,0,0,17.61,77a1.25,1.25,0,0,0,1.19.89,1.13,1.13,0,0,0,.36-.06A1.24,1.24,0,0,0,20,76.25a5.76,5.76,0,0,1,1-4.79c2-2.64,6.54-4,13.15-4l-9.58,13a1.25,1.25,0,1,0,2,1.48l9.14-12.41Zm4.26-4.5-2.81,2.46-4.74-3.5,1.39-2.67a1.25,1.25,0,0,0,.07-1l-1.65-4.67a5.75,5.75,0,0,1,3.21-5.57,1.37,1.37,0,0,0,.2-.13l.54-.41a.17.17,0,0,1,.16,0c.06,0,.08.06.08.08a2.43,2.43,0,0,1,0,1.71l-.8.94a1.25,1.25,0,1,0,1.91,1.62l4.12-4.85a4.42,4.42,0,0,1,1-.89,1.71,1.71,0,0,1,.87-.23l-2.39,3.79A1.25,1.25,0,0,0,46.84,57a1.24,1.24,0,0,0,1.06-.59l4-6.35a1.78,1.78,0,0,1,.71-.41.81.81,0,0,1,.7.12l.24.18c-.05.13-.15.33-.22.49l-.05.1-4.17,7a1.25,1.25,0,0,0,1.07,1.89,1.27,1.27,0,0,0,1.08-.61l3.53-5.91A3,3,0,0,1,55,55.13a4,4,0,0,1-.59,1.19l-.07.11-3,5.13-3.81,3.85a1.23,1.23,0,0,0-.53.53Zm3.57-51.67c9.15,0,16.64,7.45,18.45,18.2a23.48,23.48,0,0,1-20-5.81A1.25,1.25,0,0,0,45,29l-7,4.79.65-3.05a1.25,1.25,0,0,0-2.25-1,11.34,11.34,0,0,1-6.46,4.13C32,23.71,39.32,16.76,48.17,16.76Zm-20,26.36a.58.58,0,0,0-.19,0A3,3,0,0,1,25.35,40,3,3,0,0,1,28,36.78h0l.21,0a1,1,0,0,0,.62-.13,16.66,16.66,0,0,0,6.45-2.46l-.45,2.09a1.25,1.25,0,0,0,.52,1.3,1.23,1.23,0,0,0,.7.22,1.32,1.32,0,0,0,.71-.22l8.79-6A26.69,26.69,0,0,0,69.18,37,3.21,3.21,0,0,1,71,40a3,3,0,0,1-2.66,3.18h0l-.2,0a1.25,1.25,0,0,0-1.35,1.08c-1.39,10.37-7.56,18.52-15,20.55l1.53-1.55a1.22,1.22,0,0,0,.2-.25l3-5.22a6.78,6.78,0,0,0,.91-1.85,5.7,5.7,0,0,0-1-5.11,1.32,1.32,0,0,0-.42-.36,2.42,2.42,0,0,0-1.35-2.74,3.42,3.42,0,0,0-3.87.09A7.43,7.43,0,0,0,49.47,49a4.43,4.43,0,0,0-3.45.43,6.75,6.75,0,0,0-1.65,1.41l-1,1.2a2.64,2.64,0,0,0-1.62-1.46,2.68,2.68,0,0,0-2.46.43l-.44.35a8.37,8.37,0,0,0-4.35,5.8A29.85,29.85,0,0,1,29.57,44.2,1.26,1.26,0,0,0,28.22,43.12Z"/><path d="M37.85,43.57,42,45.35a1.43,1.43,0,0,0,.49.1,1.25,1.25,0,0,0,.5-2.4l-4.16-1.78a1.25,1.25,0,0,0-1,2.3Z"/><path d="M52.31,45.45a1.38,1.38,0,0,0,.49-.1L57,43.57a1.25,1.25,0,1,0-1-2.3l-4.16,1.78a1.25,1.25,0,0,0-.66,1.64A1.27,1.27,0,0,0,52.31,45.45Z"/><path d="M22.67,47.44a1.25,1.25,0,1,0,.61,1.66A1.25,1.25,0,0,0,22.67,47.44Z"/><path d="M26.3,49.13a1.25,1.25,0,1,0-1.05,2.26,1.23,1.23,0,0,0,.52.12,1.25,1.25,0,0,0,.53-2.38Z"/><path d="M25.52,53.6a1.24,1.24,0,0,0-.93,1.5,1.26,1.26,0,0,0,1.22,1l.29,0a1.25,1.25,0,1,0-.58-2.43Z"/><path d="M18,57.9a1.45,1.45,0,0,0,.29,0,1.22,1.22,0,1,0-.29,0Z"/><path d="M20.7,56a1.25,1.25,0,0,0,1.21,1,1,1,0,0,0,.29,0A1.25,1.25,0,1,0,20.7,56Z"/><path d="M26.08,60.28a1.22,1.22,0,0,0,.82.31,1.25,1.25,0,0,0,.83-2.19,1.26,1.26,0,0,0-1.77.12A1.25,1.25,0,0,0,26.08,60.28Z"/><path d="M23.32,61.52a1.25,1.25,0,0,0,.12,1.76,1.23,1.23,0,0,0,.82.32,1.25,1.25,0,1,0-.94-2.08Z"/><path d="M71.62,51.51a1.31,1.31,0,0,0,.53-.12,1.24,1.24,0,1,0-.53.12Z"/><path d="M74.72,47.44a1.25,1.25,0,0,0-.61,1.66,1.24,1.24,0,0,0,1.14.72,1.09,1.09,0,0,0,.52-.11,1.25,1.25,0,0,0-1-2.27Z"/><path d="M75.19,57a1.36,1.36,0,0,0,.29,0,1.25,1.25,0,1,0-1.22-1.54A1.26,1.26,0,0,0,75.19,57Z"/><path d="M72.8,55.1a1.25,1.25,0,0,0-2.44-.58A1.26,1.26,0,0,0,71.29,56l.29,0A1.26,1.26,0,0,0,72.8,55.1Z"/><path d="M73.13,63.6a1.23,1.23,0,0,0,.82-.32,1.23,1.23,0,1,0-.82.32Z"/><path d="M69.66,58.4a1.26,1.26,0,0,0-.11,1.77,1.25,1.25,0,0,0,.94.42,1.22,1.22,0,0,0,.82-.31,1.25,1.25,0,1,0-1.65-1.88Z"/></svg>